<svg width="211" height="96" viewBox="0 0 211 96" fill="none" xmlns="http://www.w3.org/2000/svg">
<g clip-path="url(#clip0_6_154452)">
<path d="M83.6951 23.5519C77.1175 16.8467 67.2398 16.8467 60.6621 16.8467H59.1727L63.3424 11.2332H89.313V8.10576C89.313 6.31595 89.313 4.07584 87.5587 2.28792C85.8044 0.5 83.6068 0.5 81.8525 0.5H57.9142C57.9142 0.5 47.7266 14.372 44.7571 18.3754C41.2485 23.0902 41.3913 27.5894 48.4009 27.5894H63.1001C65.662 27.5894 67.174 28.1986 68.0023 29.5816C69.2701 31.7082 69.2044 33.8461 69.2044 35.6341V46.1194C69.2044 47.9073 69.2044 50.5958 67.4501 52.3857C65.694 54.1736 63.0682 54.1736 61.312 54.1736H42.6384L34.8024 64.8954L60.6621 64.9068C67.2398 64.9068 77.1175 64.9068 83.6951 58.1903C86.0091 55.8537 87.7728 53.0233 88.8603 49.9109C90.2634 45.881 90.2634 36.0617 88.973 32.168C87.8949 28.9251 86.088 25.9774 83.6951 23.5519Z" fill="#D30422"/>
<path d="M143.741 54.1622H118.51L136.898 29.1313C138.664 26.7361 140.185 24.653 140.185 21.9759C140.185 19.2987 138.763 17.3632 136.898 14.8204L134.269 11.2446C131.632 7.66682 129.006 4.08909 125.497 2.29927C121.983 0.5 117.823 0.5 112.117 0.5H101.014C99.2601 0.5 97.0625 0.5 95.3083 2.28792C93.554 4.07773 93.554 6.31784 93.554 8.10576V11.2332H112.768C114.966 11.2332 117.813 11.2332 118.905 13.6966C119.998 16.1599 118.463 18.3887 117.15 20.1766L84.3055 64.8954H135.826L143.741 54.1622Z" fill="#D30422"/>
<path d="M10.5295 47.2111L33.2206 16.3851L33.2319 0.5H7.46229C5.70425 0.5 3.50857 0.5 1.75241 2.28792C0 4.08909 0 6.31784 0 8.10576V11.2332H10.5295V47.2111Z" fill="#D30422"/>
<path d="M10.4848 64.8064V64.8973H33.1327L33.1646 34.005L10.4848 64.8064Z" fill="#D30422"/>
<path d="M173.369 54.1622H172.375C170.621 54.1622 167.984 54.1622 166.239 52.3743C164.484 50.5845 164.484 47.896 164.484 46.1081V19.2874C164.484 17.4994 164.484 14.8223 166.239 13.0325C167.993 11.2446 170.621 11.2446 172.375 11.2446H181.392C183.147 11.2446 185.786 11.2446 187.529 13.0325C189.283 14.8204 189.283 17.4975 189.283 19.2874V32.5293L205.951 9.88233C205.297 8.92688 204.562 8.03008 203.753 7.20518C197.198 0.5 187.318 0.511352 180.741 0.5H173.038C166.46 0.5 156.581 0.5 150.003 7.20518C143.425 13.9104 143.425 23.7543 143.425 27.3321V38.0634C143.425 41.6411 143.425 51.4851 150.003 58.1903C154.408 62.678 160.268 64.1632 165.643 64.6589L173.369 54.1622Z" fill="#D30422"/>
<path d="M178.444 64.895H180.773C187.35 64.895 197.228 64.895 203.806 58.1785C210.383 51.4733 210.383 41.6426 210.383 38.0516V27.3203C210.383 26.1037 210.383 24.1474 210.118 21.8525L178.444 64.895Z" fill="#D30422"/>
<path d="M11.4507 76.1777V87.909H17.1948V76.1777H19.0537V87.909H20.5408V92.5861H18.7191V89.5958H9.5918V76.1777H11.4507Z" fill="#646566"/>
<path d="M24.1494 87.1997L29.2428 79.8198H30.9902V89.5958H29.2428V82.2159L24.1494 89.5958H22.402V79.8198H24.1494V87.1997Z" fill="#646566"/>
<path d="M40.1188 79.7431C40.2179 79.7176 40.3233 79.6984 40.4348 79.6856C40.5463 79.6728 40.6889 79.6664 40.8624 79.6664C42.3991 79.6664 43.4958 80.1009 44.1526 80.9699C44.8218 81.8389 45.1565 83.0849 45.1565 84.7078C45.1565 85.3595 45.0635 85.9921 44.8776 86.6055C44.7041 87.2061 44.4377 87.7428 44.0783 88.2157C43.7189 88.6757 43.2666 89.0463 42.7213 89.3275C42.1884 89.6086 41.5564 89.7492 40.8252 89.7492C40.5649 89.7492 40.3295 89.7236 40.1188 89.6725V93.8896H38.3714V89.6725C38.1731 89.7236 37.9563 89.7492 37.7208 89.7492C36.9772 89.7492 36.3266 89.6342 35.7689 89.4041C35.2237 89.1613 34.7713 88.8227 34.4119 88.3882C34.0525 87.9409 33.7799 87.4106 33.594 86.7972C33.4205 86.171 33.3338 85.4745 33.3338 84.7078C33.3338 84.0305 33.4143 83.3916 33.5754 82.7909C33.7365 82.1775 33.9906 81.6408 34.3376 81.1808C34.6846 80.7207 35.1307 80.3565 35.676 80.0881C36.2213 79.807 36.8843 79.6664 37.665 79.6664C37.8137 79.6664 37.9439 79.6728 38.0554 79.6856C38.1669 79.6984 38.2723 79.7176 38.3714 79.7431V76.1777H40.1188V79.7431ZM40.1188 88.2732C40.1932 88.286 40.2675 88.2987 40.3419 88.3115C40.4286 88.3115 40.5587 88.3115 40.7322 88.3115C41.2156 88.3115 41.6183 88.2029 41.9405 87.9856C42.2751 87.7684 42.5416 87.4873 42.7399 87.1422C42.9381 86.7972 43.0807 86.4138 43.1674 85.9921C43.2542 85.5576 43.2975 85.1295 43.2975 84.7078C43.2975 84.2605 43.2604 83.8197 43.186 83.3852C43.124 82.9507 43.0001 82.5673 42.8142 82.235C42.6283 81.89 42.3619 81.6153 42.0149 81.4108C41.6803 81.2063 41.2465 81.1041 40.7136 81.1041C40.6145 81.1041 40.5154 81.1041 40.4162 81.1041C40.3171 81.1041 40.2179 81.1169 40.1188 81.1424V88.2732ZM38.3714 81.1424C38.3095 81.1169 38.2351 81.1041 38.1483 81.1041C38.074 81.1041 37.9872 81.1041 37.8881 81.1041C37.3304 81.1041 36.8719 81.2127 36.5125 81.43C36.1655 81.6344 35.8929 81.9092 35.6946 82.2542C35.4963 82.5992 35.36 82.989 35.2856 83.4235C35.2237 83.8452 35.1927 84.2733 35.1927 84.7078C35.1927 85.1806 35.236 85.6343 35.3228 86.0688C35.4095 86.5033 35.5583 86.8866 35.7689 87.2189C35.9796 87.5512 36.2584 87.8195 36.6054 88.024C36.9524 88.2157 37.3924 88.3115 37.9253 88.3115C38.0244 88.3115 38.105 88.3115 38.1669 88.3115C38.2413 88.3115 38.3095 88.2987 38.3714 88.2732V81.1424Z" fill="#646566"/>
<path d="M49.1631 79.8198V81.2191H49.2003C49.4358 80.8741 49.696 80.5993 49.9811 80.3948C50.2785 80.1776 50.5697 80.0179 50.8548 79.9156C51.1522 79.8134 51.431 79.7495 51.6913 79.7239C51.9515 79.6856 52.1684 79.6664 52.3419 79.6664C52.9491 79.6664 53.5006 79.7687 53.9963 79.9731C54.5044 80.1776 54.9568 80.5099 55.3533 80.9699C55.7003 81.3788 55.9792 81.8964 56.1898 82.5226C56.4005 83.1487 56.5059 83.8516 56.5059 84.6311C56.5059 85.3979 56.4005 86.0943 56.1898 86.7205C55.9916 87.3467 55.6941 87.8834 55.2976 88.3307C54.901 88.778 54.4053 89.1294 53.8104 89.385C53.228 89.6278 52.5464 89.7492 51.7656 89.7492C51.5425 89.7492 51.3071 89.73 51.0592 89.6917C50.8114 89.6533 50.5697 89.6022 50.3343 89.5383C50.1112 89.4744 49.9067 89.4041 49.7208 89.3275C49.5349 89.2508 49.3862 89.1677 49.2747 89.0783H49.2375V93.8896H47.4901V79.8198H49.1631ZM49.2375 87.2381C49.3986 87.4298 49.5907 87.5895 49.8138 87.7173C50.0368 87.8451 50.2723 87.9537 50.5201 88.0432C50.768 88.1326 51.0159 88.1965 51.2637 88.2348C51.524 88.2732 51.7656 88.2923 51.9887 88.2923C52.41 88.2923 52.7632 88.2093 53.0483 88.0432C53.3457 87.877 53.5874 87.6853 53.7732 87.4681C54.0335 87.1742 54.2442 86.7844 54.4053 86.2988C54.5664 85.8004 54.6469 85.2254 54.6469 84.5736C54.6469 84.1902 54.5974 83.7621 54.4982 83.2893C54.4115 82.8037 54.2008 82.3628 53.8662 81.9667C53.6555 81.7111 53.3953 81.5066 53.0854 81.3533C52.788 81.1999 52.441 81.1233 52.0445 81.1233C51.7099 81.1233 51.3938 81.1808 51.0964 81.2958C50.8114 81.4108 50.5449 81.5705 50.2971 81.775C50.0616 81.9667 49.8509 82.1967 49.665 82.4651C49.4915 82.7206 49.349 82.989 49.2375 83.2701V87.2381Z" fill="#646566"/>
<path d="M63.0367 81.1233C62.5658 81.1233 62.1383 81.2319 61.7541 81.4491C61.3699 81.6664 61.0539 81.9411 60.806 82.2734C60.5582 82.6056 60.3723 82.989 60.2484 83.4235C60.1368 83.8452 60.0811 84.2733 60.0811 84.7078C60.0811 85.2062 60.143 85.6662 60.267 86.0879C60.4033 86.4969 60.583 86.8483 60.806 87.1422C60.9919 87.4106 61.1902 87.6214 61.4009 87.7748C61.624 87.9281 61.8346 88.0432 62.0329 88.1198C62.2436 88.1965 62.4357 88.2476 62.6092 88.2732C62.7827 88.286 62.9252 88.2923 63.0367 88.2923C63.1483 88.2923 63.2908 88.286 63.4643 88.2732C63.6378 88.2476 63.8237 88.1965 64.022 88.1198C64.2326 88.0432 64.4433 87.9281 64.654 87.7748C64.8771 87.6214 65.0815 87.4106 65.2674 87.1422C65.4905 86.8483 65.664 86.4969 65.7879 86.0879C65.9242 85.6662 65.9924 85.2062 65.9924 84.7078C65.9924 84.2094 65.9242 83.7558 65.7879 83.3468C65.664 82.9251 65.4905 82.5673 65.2674 82.2734C64.9824 81.8772 64.6416 81.5897 64.245 81.4108C63.8485 81.2191 63.4457 81.1233 63.0367 81.1233ZM63.0367 79.6664C63.4829 79.6664 63.8918 79.7112 64.2636 79.8006C64.6354 79.8901 64.97 80.0115 65.2674 80.1648C65.5649 80.3054 65.8251 80.4715 66.0482 80.6632C66.2713 80.8421 66.4633 81.021 66.6244 81.1999C67.0458 81.6855 67.3556 82.235 67.5539 82.8484C67.7522 83.4618 67.8513 84.0816 67.8513 84.7078C67.8513 85.334 67.7522 85.9538 67.5539 86.5672C67.3556 87.1806 67.0458 87.7301 66.6244 88.2157C66.4633 88.3946 66.2713 88.5799 66.0482 88.7716C65.8251 88.9505 65.5649 89.1166 65.2674 89.2699C64.97 89.4105 64.6354 89.5255 64.2636 89.615C63.8918 89.7044 63.4829 89.7492 63.0367 89.7492C62.5906 89.7492 62.1816 89.7044 61.8099 89.615C61.4381 89.5255 61.1035 89.4105 60.806 89.2699C60.5086 89.1166 60.2484 88.9505 60.0253 88.7716C59.8022 88.5799 59.6101 88.3946 59.449 88.2157C59.0277 87.7301 58.7179 87.1806 58.5196 86.5672C58.3213 85.9538 58.2221 85.334 58.2221 84.7078C58.2221 84.0816 58.3213 83.4618 58.5196 82.8484C58.7179 82.235 59.0277 81.6855 59.449 81.1999C59.6101 81.021 59.8022 80.8421 60.0253 80.6632C60.2484 80.4715 60.5086 80.3054 60.806 80.1648C61.1035 80.0115 61.4381 79.8901 61.8099 79.8006C62.1816 79.7112 62.5906 79.6664 63.0367 79.6664Z" fill="#646566"/>
<path d="M71.9475 88.139H74.1596C74.3455 88.139 74.5871 88.1134 74.8846 88.0623C75.1944 88.0112 75.4608 87.877 75.6839 87.6598C75.783 87.5703 75.8698 87.4489 75.9441 87.2956C76.0309 87.1422 76.0743 86.9505 76.0743 86.7205C76.0743 86.4266 76.0061 86.1774 75.8698 85.9729C75.7458 85.7685 75.5909 85.6087 75.4051 85.4937C75.2439 85.3915 75.0333 85.3148 74.773 85.2637C74.5252 85.2126 74.1844 85.187 73.7506 85.187H71.9475V88.139ZM71.9475 83.8452H73.6949C73.9799 83.8452 74.2525 83.8324 74.5128 83.8069C74.773 83.7813 75.0085 83.7046 75.2192 83.5768C75.4918 83.4107 75.6529 83.2318 75.7025 83.0401C75.752 82.8484 75.7768 82.6823 75.7768 82.5417C75.7768 82.3884 75.7459 82.2223 75.6839 82.0434C75.6219 81.8517 75.467 81.6855 75.2192 81.545C75.0828 81.4555 74.9031 81.3916 74.6801 81.3533C74.4694 81.3022 74.203 81.2766 73.8807 81.2766H71.9475V83.8452ZM73.9737 79.8198C74.1596 79.8198 74.3579 79.8262 74.5685 79.839C74.7916 79.8517 75.0147 79.8773 75.2377 79.9156C75.4608 79.954 75.6839 80.0115 75.907 80.0881C76.13 80.1648 76.3407 80.2671 76.539 80.3948C76.9232 80.6504 77.1834 80.9507 77.3197 81.2958C77.4684 81.6408 77.5428 81.9731 77.5428 82.2925C77.5428 82.5865 77.4932 82.8612 77.3941 83.1168C77.3073 83.3596 77.1958 83.5705 77.0595 83.7494C76.9232 83.9283 76.7559 84.088 76.5576 84.2286C76.3593 84.3564 76.1362 84.4522 75.8884 84.5161V84.5736C76.1362 84.612 76.3841 84.6886 76.6319 84.8036C76.8922 84.9059 77.1091 85.0401 77.2826 85.2062C77.3197 85.2317 77.3693 85.2893 77.4313 85.3787C77.5056 85.4554 77.58 85.564 77.6543 85.7046C77.7287 85.8324 77.7907 85.9921 77.8402 86.1838C77.9022 86.3755 77.9332 86.5991 77.9332 86.8547C77.9332 87.3659 77.834 87.794 77.6357 88.139C77.4375 88.484 77.1772 88.7652 76.855 88.9824C76.4584 89.2636 76.0309 89.4361 75.5723 89.5C75.1138 89.5639 74.7111 89.5958 74.3641 89.5958H70.2001V79.8198H73.9737Z" fill="#646566"/>
<path d="M89.5283 79.8198H91.2757V89.5958H89.5283V79.8198ZM82.2042 88.139H84.472C84.6951 88.139 84.943 88.1134 85.2156 88.0623C85.4883 88.0112 85.7299 87.8706 85.9406 87.6406C86.0893 87.4745 86.1823 87.2956 86.2194 87.1039C86.269 86.9122 86.2938 86.7397 86.2938 86.5863C86.2938 86.4074 86.2628 86.2157 86.2008 86.0113C86.1513 85.8068 86.0335 85.6215 85.8476 85.4554C85.7361 85.3531 85.606 85.2765 85.4573 85.2254C85.3086 85.1615 85.1536 85.1167 84.9925 85.0912C84.8438 85.0528 84.6951 85.0337 84.5464 85.0337C84.4101 85.0209 84.2924 85.0145 84.1932 85.0145H82.2042V88.139ZM82.2042 79.8198V83.5577H84.156C84.3419 83.5577 84.5464 83.5641 84.7695 83.5768C85.0049 83.5896 85.2466 83.6216 85.4945 83.6727C85.7547 83.7238 86.0088 83.8005 86.2566 83.9027C86.5169 84.0049 86.7585 84.1391 86.9816 84.3053C87.2418 84.5097 87.4835 84.7973 87.7066 85.1678C87.9296 85.5384 88.0412 86.0241 88.0412 86.6247C88.0412 87.0847 87.9544 87.5 87.7809 87.8706C87.6198 88.2412 87.4091 88.5479 87.1489 88.7907C86.9506 88.9696 86.7337 89.1166 86.4983 89.2316C86.2752 89.3338 86.0459 89.4169 85.8105 89.4808C85.575 89.5319 85.3457 89.5639 85.1227 89.5766C84.8996 89.5894 84.6951 89.5958 84.5092 89.5958H80.4568V79.8198H82.2042Z" fill="#646566"/>
<path d="M100.388 83.7685C100.4 83.4235 100.357 83.0976 100.258 82.7909C100.159 82.4842 100.022 82.2223 99.8488 82.005C99.7 81.8133 99.477 81.6216 99.1796 81.43C98.8821 81.2255 98.4794 81.1233 97.9712 81.1233C97.5251 81.1233 97.1471 81.2191 96.8373 81.4108C96.5275 81.6025 96.2734 81.8325 96.0752 82.1009C95.9017 82.3437 95.7653 82.612 95.6662 82.9059C95.5671 83.1871 95.5051 83.4746 95.4803 83.7685H100.388ZM95.4803 85.1103C95.4927 85.5448 95.5671 85.9538 95.7034 86.3371C95.8521 86.7077 96.0442 87.0208 96.2796 87.2764C96.5275 87.5703 96.8497 87.8131 97.2463 88.0048C97.6552 88.1965 98.1262 88.2923 98.659 88.2923C99.1672 88.2923 99.6814 88.1965 100.202 88.0048C100.722 87.8003 101.162 87.5703 101.522 87.3147V89.1166L101.262 89.2124C101.125 89.2636 100.983 89.3211 100.834 89.385C100.685 89.4361 100.499 89.4936 100.276 89.5575C100.066 89.6086 99.8178 89.6533 99.5327 89.6917C99.2477 89.73 98.9131 89.7492 98.5289 89.7492C98.2439 89.7492 97.9403 89.73 97.6181 89.6917C97.2958 89.6661 96.9736 89.6022 96.6514 89.5C96.3416 89.3977 96.0318 89.2572 95.722 89.0783C95.4121 88.8866 95.1209 88.6438 94.8483 88.3499C94.6996 88.1965 94.5508 88.0048 94.4021 87.7748C94.2658 87.5448 94.1357 87.2828 94.0118 86.9889C93.9002 86.6822 93.8073 86.3371 93.7329 85.9538C93.6586 85.5704 93.6214 85.1423 93.6214 84.6695C93.6214 84.1583 93.6648 83.6982 93.7515 83.2893C93.8383 82.8676 93.9498 82.5034 94.0861 82.1967C94.2348 81.8772 94.3959 81.6025 94.5694 81.3724C94.7429 81.1296 94.9164 80.9316 95.0899 80.7782C95.375 80.5099 95.7591 80.2607 96.2425 80.0306C96.7258 79.7878 97.333 79.6664 98.0642 79.6664C98.8945 79.6664 99.5575 79.8134 100.053 80.1073C100.549 80.3885 100.933 80.7015 101.206 81.0466C101.565 81.4939 101.825 82.0434 101.987 82.6951C102.16 83.334 102.247 83.9666 102.247 84.5928V85.1103H95.4803Z" fill="#646566"/>
<path d="M115.948 79.8198V81.2766H112.658V89.5958H110.91V81.2766H107.62V79.8198H115.948Z" fill="#646566"/>
<path d="M123.751 83.7685C123.764 83.4235 123.72 83.0976 123.621 82.7909C123.522 82.4842 123.386 82.2223 123.212 82.005C123.064 81.8133 122.84 81.6216 122.543 81.43C122.246 81.2255 121.843 81.1233 121.335 81.1233C120.889 81.1233 120.511 81.2191 120.201 81.4108C119.891 81.6025 119.637 81.8325 119.439 82.1009C119.265 82.3437 119.129 82.612 119.03 82.9059C118.931 83.1871 118.869 83.4746 118.844 83.7685H123.751ZM118.844 85.1103C118.856 85.5448 118.931 85.9538 119.067 86.3371C119.216 86.7077 119.408 87.0208 119.643 87.2764C119.891 87.5703 120.213 87.8131 120.61 88.0048C121.019 88.1965 121.49 88.2923 122.023 88.2923C122.531 88.2923 123.045 88.1965 123.565 88.0048C124.086 87.8003 124.526 87.5703 124.885 87.3147V89.1166L124.625 89.2124C124.489 89.2636 124.346 89.3211 124.197 89.385C124.049 89.4361 123.863 89.4936 123.64 89.5575C123.429 89.6086 123.181 89.6533 122.896 89.6917C122.611 89.73 122.277 89.7492 121.892 89.7492C121.607 89.7492 121.304 89.73 120.982 89.6917C120.659 89.6661 120.337 89.6022 120.015 89.5C119.705 89.3977 119.395 89.2572 119.085 89.0783C118.776 88.8866 118.484 88.6438 118.212 88.3499C118.063 88.1965 117.914 88.0048 117.766 87.7748C117.629 87.5448 117.499 87.2828 117.375 86.9889C117.264 86.6822 117.171 86.3371 117.096 85.9538C117.022 85.5704 116.985 85.1423 116.985 84.6695C116.985 84.1583 117.028 83.6982 117.115 83.2893C117.202 82.8676 117.313 82.5034 117.45 82.1967C117.598 81.8772 117.759 81.6025 117.933 81.3724C118.106 81.1296 118.28 80.9316 118.453 80.7782C118.738 80.5099 119.123 80.2607 119.606 80.0306C120.089 79.7878 120.697 79.6664 121.428 79.6664C122.258 79.6664 122.921 79.8134 123.417 80.1073C123.912 80.3885 124.297 80.7015 124.569 81.0466C124.929 81.4939 125.189 82.0434 125.35 82.6951C125.523 83.334 125.61 83.9666 125.61 84.5928V85.1103H118.844Z" fill="#646566"/>
<path d="M130.065 84.4778L126.98 79.8198H129.155L131.218 83.3085L133.319 79.8198H135.27L132.222 84.4778L135.568 89.5958H133.411L131.069 85.7621L128.727 89.5958H126.645L130.065 84.4778Z" fill="#646566"/>
<path d="M138.988 83.7877H143.821V79.8198H145.569V89.5958H143.821V85.2445H138.988V89.5958H137.241V79.8198H138.988V83.7877Z" fill="#646566"/>
<path d="M152.733 81.1233C152.262 81.1233 151.835 81.2319 151.45 81.4491C151.066 81.6664 150.75 81.9411 150.502 82.2734C150.254 82.6056 150.069 82.989 149.945 83.4235C149.833 83.8452 149.777 84.2733 149.777 84.7078C149.777 85.2062 149.839 85.6662 149.963 86.0879C150.1 86.4969 150.279 86.8483 150.502 87.1422C150.688 87.4106 150.886 87.6214 151.097 87.7748C151.32 87.9281 151.531 88.0432 151.729 88.1198C151.94 88.1965 152.132 88.2476 152.305 88.2732C152.479 88.286 152.621 88.2923 152.733 88.2923C152.844 88.2923 152.987 88.286 153.161 88.2732C153.334 88.2476 153.52 88.1965 153.718 88.1198C153.929 88.0432 154.14 87.9281 154.35 87.7748C154.573 87.6214 154.778 87.4106 154.964 87.1422C155.187 86.8483 155.36 86.4969 155.484 86.0879C155.62 85.6662 155.689 85.2062 155.689 84.7078C155.689 84.2094 155.62 83.7558 155.484 83.3468C155.36 82.9251 155.187 82.5673 154.964 82.2734C154.679 81.8772 154.338 81.5897 153.941 81.4108C153.545 81.2191 153.142 81.1233 152.733 81.1233ZM152.733 79.6664C153.179 79.6664 153.588 79.7112 153.96 79.8006C154.332 79.8901 154.666 80.0115 154.964 80.1648C155.261 80.3054 155.521 80.4715 155.744 80.6632C155.967 80.8421 156.16 81.021 156.321 81.1999C156.742 81.6855 157.052 82.235 157.25 82.8484C157.448 83.4618 157.548 84.0816 157.548 84.7078C157.548 85.334 157.448 85.9538 157.25 86.5672C157.052 87.1806 156.742 87.7301 156.321 88.2157C156.16 88.3946 155.967 88.5799 155.744 88.7716C155.521 88.9505 155.261 89.1166 154.964 89.2699C154.666 89.4105 154.332 89.5255 153.96 89.615C153.588 89.7044 153.179 89.7492 152.733 89.7492C152.287 89.7492 151.878 89.7044 151.506 89.615C151.134 89.5255 150.8 89.4105 150.502 89.2699C150.205 89.1166 149.945 88.9505 149.722 88.7716C149.498 88.5799 149.306 88.3946 149.145 88.2157C148.724 87.7301 148.414 87.1806 148.216 86.5672C148.018 85.9538 147.918 85.334 147.918 84.7078C147.918 84.0816 148.018 83.4618 148.216 82.8484C148.414 82.235 148.724 81.6855 149.145 81.1999C149.306 81.021 149.498 80.8421 149.722 80.6632C149.945 80.4715 150.205 80.3054 150.502 80.1648C150.8 80.0115 151.134 79.8901 151.506 79.8006C151.878 79.7112 152.287 79.6664 152.733 79.6664Z" fill="#646566"/>
<path d="M167.128 79.8198V89.5958H165.38V81.2766H162.294L162.239 83.8069C162.226 84.4969 162.208 85.0848 162.183 85.5704C162.158 86.056 162.127 86.4777 162.09 86.8355C162.053 87.1806 162.003 87.4745 161.941 87.7173C161.892 87.9473 161.83 88.1582 161.755 88.3499C161.545 88.861 161.272 89.2252 160.937 89.4425C160.603 89.6469 160.169 89.7492 159.636 89.7492C159.289 89.7492 158.93 89.698 158.558 89.5958L158.781 88.1582C158.855 88.1837 158.942 88.2093 159.041 88.2348C159.153 88.2476 159.246 88.254 159.32 88.254C159.531 88.254 159.704 88.2093 159.841 88.1198C159.977 88.0304 160.082 87.9218 160.157 87.794C160.231 87.6662 160.281 87.532 160.305 87.3914C160.342 87.2381 160.373 87.1039 160.398 86.9889C160.46 86.5799 160.497 86.1327 160.51 85.6471C160.535 85.1615 160.553 84.5481 160.566 83.8069L160.621 79.8198H167.128Z" fill="#646566"/>
<path d="M174.281 81.1233C173.81 81.1233 173.383 81.2319 172.998 81.4491C172.614 81.6664 172.298 81.9411 172.05 82.2734C171.803 82.6056 171.617 82.989 171.493 83.4235C171.381 83.8452 171.325 84.2733 171.325 84.7078C171.325 85.2062 171.387 85.6662 171.511 86.0879C171.648 86.4969 171.827 86.8483 172.05 87.1422C172.236 87.4106 172.435 87.6214 172.645 87.7748C172.868 87.9281 173.079 88.0432 173.277 88.1198C173.488 88.1965 173.68 88.2476 173.854 88.2732C174.027 88.286 174.17 88.2923 174.281 88.2923C174.393 88.2923 174.535 88.286 174.709 88.2732C174.882 88.2476 175.068 88.1965 175.266 88.1198C175.477 88.0432 175.688 87.9281 175.898 87.7748C176.121 87.6214 176.326 87.4106 176.512 87.1422C176.735 86.8483 176.908 86.4969 177.032 86.0879C177.169 85.6662 177.237 85.2062 177.237 84.7078C177.237 84.2094 177.169 83.7558 177.032 83.3468C176.908 82.9251 176.735 82.5673 176.512 82.2734C176.227 81.8772 175.886 81.5897 175.489 81.4108C175.093 81.2191 174.69 81.1233 174.281 81.1233ZM174.281 79.6664C174.727 79.6664 175.136 79.7112 175.508 79.8006C175.88 79.8901 176.214 80.0115 176.512 80.1648C176.809 80.3054 177.069 80.4715 177.293 80.6632C177.516 80.8421 177.708 81.021 177.869 81.1999C178.29 81.6855 178.6 82.235 178.798 82.8484C178.997 83.4618 179.096 84.0816 179.096 84.7078C179.096 85.334 178.997 85.9538 178.798 86.5672C178.6 87.1806 178.29 87.7301 177.869 88.2157C177.708 88.3946 177.516 88.5799 177.293 88.7716C177.069 88.9505 176.809 89.1166 176.512 89.2699C176.214 89.4105 175.88 89.5255 175.508 89.615C175.136 89.7044 174.727 89.7492 174.281 89.7492C173.835 89.7492 173.426 89.7044 173.054 89.615C172.682 89.5255 172.348 89.4105 172.05 89.2699C171.753 89.1166 171.493 88.9505 171.27 88.7716C171.047 88.5799 170.855 88.3946 170.693 88.2157C170.272 87.7301 169.962 87.1806 169.764 86.5672C169.566 85.9538 169.467 85.334 169.467 84.7078C169.467 84.0816 169.566 83.4618 169.764 82.8484C169.962 82.235 170.272 81.6855 170.693 81.1999C170.855 81.021 171.047 80.8421 171.27 80.6632C171.493 80.4715 171.753 80.3054 172.05 80.1648C172.348 80.0115 172.682 79.8901 173.054 79.8006C173.426 79.7112 173.835 79.6664 174.281 79.6664Z" fill="#646566"/>
<path d="M187.672 79.8198V81.3533H183.192V89.5958H181.444V79.8198H187.672Z" fill="#646566"/>
<path d="M190.998 87.1997L196.091 79.8198H197.839V89.5958H196.091V82.2159L190.998 89.5958H189.25V79.8198H190.998V87.1997Z" fill="#646566"/>
<path d="M202.562 87.1997L207.655 79.8198H209.402V89.5958H207.655V82.2159L202.562 89.5958H200.814V79.8198H202.562V87.1997Z" fill="#646566"/>
</g>
<defs>
<clipPath id="clip0_6_154452">
<rect width="211" height="95" fill="white" transform="translate(0 0.5)"/>
</clipPath>
</defs>
</svg>
