<svg width="1792" height="90" viewBox="0 0 1792 90" fill="none" xmlns="http://www.w3.org/2000/svg">
<g clip-path="url(#clip0_57_6198)">
<path d="M1587.95 58.5152L1609.4 29.7982L1609.41 15H1585.05C1583.39 15 1581.32 15 1579.66 16.6657C1578 18.3434 1578 20.4197 1578 22.0854V24.9987H1587.95V58.5152Z" fill="#D30422" fill-opacity="0.6"/>
<path d="M1635.34 30.2283C1641.56 30.2283 1650.89 30.2283 1657.11 36.4747C1659.37 38.7341 1661.08 41.4802 1662.1 44.5012C1663.32 48.1285 1663.32 57.2759 1661.99 61.0302C1660.96 63.9295 1659.3 66.5662 1657.11 68.743C1650.89 75 1641.56 75 1635.34 75L1610.9 74.9894L1618.3 65.001H1635.95C1637.61 65.001 1640.1 65.001 1641.75 63.3356C1643.41 61.6679 1643.41 59.1638 1643.41 57.4981V47.7302C1643.41 46.0645 1643.48 44.0728 1642.28 42.092C1641.49 40.8034 1640.06 40.2359 1637.64 40.2359H1623.75C1617.12 40.2359 1616.99 36.0446 1620.31 31.6523C1623.11 27.9229 1632.74 15 1632.74 15H1655.37C1657.03 15 1659.1 15 1660.76 16.6657C1662.42 18.3311 1662.42 20.418 1662.42 22.0854V24.9987H1637.87L1633.93 30.2283H1635.34Z" fill="#D30422" fill-opacity="0.6"/>
<path d="M1690.02 64.9904H1713.87L1706.39 74.9894H1657.69L1688.73 33.3303C1689.97 31.6646 1691.42 29.5883 1690.39 27.2938C1689.36 24.9987 1686.67 24.9987 1684.59 24.9987H1666.43V22.0854C1666.43 20.4197 1666.43 18.3328 1668.09 16.6657C1669.74 15 1671.82 15 1673.48 15H1683.97C1689.37 15 1693.3 15 1696.62 16.676C1699.92 18.3348 1702.39 21.6419 1704.87 24.9574L1707.4 28.3404C1709.16 30.7095 1710.51 32.5125 1710.51 35.0063C1710.51 37.5004 1709.07 39.441 1707.4 41.6725L1690.02 64.9904Z" fill="#D30422" fill-opacity="0.6"/>
<path d="M1587.91 74.9908V74.9065L1609.35 46.2124L1609.32 74.9908H1587.91Z" fill="#D30422" fill-opacity="0.6"/>
<path d="M1741.87 64.9904H1740.93C1739.27 64.9904 1736.78 64.9904 1735.13 63.325C1733.47 61.6576 1733.47 59.1529 1733.47 57.4875V32.5019C1733.47 30.8362 1733.47 28.3421 1735.13 26.675C1736.79 25.0093 1739.27 25.0093 1740.93 25.0093H1749.46C1751.11 25.0093 1753.61 25.0093 1755.26 26.675C1756.91 28.3404 1756.91 30.8345 1756.91 32.5019V44.8378L1772.67 23.7405C1772.05 22.8501 1771.36 22.0148 1770.59 21.2464C1764.42 15.0262 1755.14 15.0106 1748.92 15H1741.56C1735.34 15 1726 15 1719.79 21.2464C1713.57 27.4928 1713.57 36.6634 1713.57 39.9962V49.9932C1713.57 53.326 1713.57 62.4966 1719.79 68.743C1723.95 72.9237 1729.49 74.3073 1734.57 74.7692L1741.87 64.9904Z" fill="#D30422" fill-opacity="0.6"/>
<path d="M1748.87 74.9891H1746.67L1776.61 34.8913C1776.78 36.3614 1776.83 37.6824 1776.85 38.7324C1776.86 39.2097 1776.86 39.6311 1776.86 39.985V49.9823C1776.86 53.3274 1776.86 62.4854 1770.64 68.7321C1764.42 74.9891 1755.09 74.9891 1748.87 74.9891Z" fill="#D30422" fill-opacity="0.6"/>
<path fill-rule="evenodd" clip-rule="evenodd" d="M1792 0H0V90H1792V0ZM1609.4 29.7988L1587.95 58.5156V24.998H1578V22.0859C1578 21.7188 1578 21.3301 1578.02 20.9297C1578.04 20.5508 1578.07 20.1621 1578.13 19.7695C1578.31 18.7051 1578.71 17.6211 1579.66 16.666C1581.32 15 1583.39 15 1585.05 15H1609.41L1609.4 29.7988ZM1641.9 30.4199C1639.54 30.2285 1637.29 30.2285 1635.34 30.2285H1633.93L1637.87 24.998H1662.42V22.0859C1662.42 20.418 1662.42 18.332 1660.76 16.666C1659.11 15 1657.03 15 1655.37 15H1632.74L1624.81 25.6309L1620.3 31.6523C1618.6 33.9121 1617.8 36.1191 1618.34 37.7285C1618.85 39.248 1620.54 40.2363 1623.75 40.2363H1637.64C1640.07 40.2363 1641.49 40.8027 1642.28 42.0918C1643.42 43.9805 1643.42 45.877 1643.41 47.4941V57.498C1643.41 59.1641 1643.41 61.668 1641.75 63.3359C1641.48 63.6074 1641.2 63.834 1640.89 64.0234L1640.64 64.1621L1640.39 64.2949C1639.82 64.5684 1639.21 64.7363 1638.61 64.8398C1637.66 65.002 1636.72 65.002 1635.95 65.002H1618.3L1610.89 74.9902L1635.34 75C1641.55 75 1650.89 75 1657.11 68.7422C1659.3 66.5664 1660.96 63.9297 1661.99 61.0293C1663.32 57.2754 1663.32 48.1289 1662.1 44.502C1661.08 41.4805 1659.37 38.7344 1657.11 36.4746C1652.84 32.1836 1647.09 30.8398 1641.9 30.4199ZM1690.02 64.9902H1713.87L1706.39 74.9902H1657.69L1688.73 33.3301C1689.97 31.6641 1691.43 29.5879 1690.39 27.293C1689.36 24.998 1686.67 24.998 1684.59 24.998H1666.43V22.0859C1666.43 20.4199 1666.43 18.332 1668.09 16.666C1668.32 16.4277 1668.57 16.2227 1668.82 16.0469L1669.13 15.8535L1669.45 15.6797L1669.64 15.5859L1670 15.4395L1670.44 15.2949C1670.6 15.25 1670.76 15.2129 1670.91 15.1797L1671.28 15.1152C1671.53 15.0781 1671.78 15.0527 1672.02 15.0352C1672.53 15 1673.02 15 1673.48 15H1683.97C1689.37 15 1693.3 15 1696.62 16.6758C1699.92 18.334 1702.39 21.6426 1704.88 24.957L1707.4 28.3398C1709.16 30.709 1710.5 32.5117 1710.5 35.0059C1710.5 37.5 1709.07 39.4414 1707.4 41.6719L1690.02 64.9902ZM1587.91 74.9062V74.9902H1609.32L1609.35 46.2129L1587.91 74.9062ZM1741.87 64.9902H1740.93C1739.27 64.9902 1736.78 64.9902 1735.13 63.3242C1734.14 62.3203 1733.74 61.0117 1733.58 59.7676C1733.48 58.9453 1733.48 58.1504 1733.48 57.4883V32.502C1733.48 30.8359 1733.48 28.3418 1735.13 26.6758C1735.96 25.8477 1736.98 25.4316 1738.01 25.2227C1738.51 25.1211 1739 25.0684 1739.47 25.041C1740 25.0098 1740.49 25.0098 1740.93 25.0098H1749.46C1750.28 25.0098 1751.3 25.0098 1752.32 25.2109C1753.38 25.418 1754.43 25.834 1755.26 26.6758C1755.78 27.1973 1756.13 27.8008 1756.38 28.4355C1756.61 29.0234 1756.74 29.6367 1756.81 30.2363C1756.86 30.6504 1756.89 31.0586 1756.9 31.4453C1756.91 31.8203 1756.91 32.1758 1756.91 32.502V44.8379L1772.67 23.7402C1772.37 23.3125 1772.06 22.8984 1771.73 22.498C1771.37 22.0645 1770.99 21.6465 1770.59 21.2461C1764.42 15.0254 1755.14 15.0098 1748.92 15H1741.56C1735.34 15 1726 15 1719.79 21.2461C1713.57 27.4922 1713.57 36.6641 1713.57 39.9961V49.9941C1713.57 53.3262 1713.57 62.4961 1719.79 68.7422C1723.95 72.9238 1729.49 74.3066 1734.57 74.7695L1741.87 64.9902ZM1746.67 74.9883H1748.87C1755.09 74.9883 1764.42 74.9883 1770.64 68.7324C1776.86 62.4863 1776.86 53.3281 1776.86 49.9824V39.9844L1776.85 38.7324C1776.83 37.6816 1776.78 36.3613 1776.61 34.8906L1746.67 74.9883Z" fill="white"/>
</g>
<defs>
<clipPath id="clip0_57_6198">
<rect width="1792" height="90" fill="white"/>
</clipPath>
</defs>
</svg>
