<svg width="1792" height="716" viewBox="0 0 1792 716" fill="none" xmlns="http://www.w3.org/2000/svg">
<g clip-path="url(#clip0_62_6340)">
<path d="M415.026 646.149L428.698 644.097V602.239L415.026 600.187C403.213 600.187 403.213 600.734 403.213 623.168C403.213 645.602 403.213 646.149 415.026 646.149Z" fill="white"/>
<path d="M455.908 600.187L442.236 602.239V644.097L455.908 646.149C467.721 646.149 467.721 645.602 467.721 623.168C467.721 600.734 467.721 600.187 455.908 600.187Z" fill="white"/>
<path d="M513.706 604.838L529.634 600.734C535.34 600.734 538.642 600.734 540.551 602.414C543.172 604.72 543.172 610.19 543.172 623.168C543.172 635.942 543.172 641.615 540.437 644.135C538.251 646.149 534.319 646.149 527.244 646.149C524.855 646.149 520.077 646.149 513.706 644.507V604.838Z" fill="white"/>
<path d="M617.019 623.168C617.019 636.168 617.019 641.814 614.303 644.267C612.219 646.149 608.534 646.149 602.02 646.149C595.347 646.149 591.591 646.149 589.477 644.229C586.756 641.757 586.756 636.102 586.756 623.168C586.756 610.2 586.756 604.55 589.474 602.088C591.574 600.187 595.294 600.187 601.887 600.187C608.48 600.187 612.201 600.187 614.3 602.088C617.019 604.55 617.019 610.2 617.019 623.168Z" fill="white"/>
<path d="M677.234 628.092C682.698 628.092 685.279 628.092 686.497 629.42C687.587 630.608 687.587 632.858 687.587 637.121C687.587 641.384 687.587 643.634 686.497 644.821C685.279 646.149 682.698 646.149 677.234 646.149H662.899V628.092H677.234Z" fill="white"/>
<path d="M675.907 600.187C681.371 600.187 683.951 600.187 685.17 601.514C686.26 602.702 686.26 604.952 686.26 609.215C686.26 613.478 686.26 615.728 685.17 616.916C683.951 618.243 681.371 618.243 675.907 618.243H662.899V600.187H675.907Z" fill="white"/>
<path d="M757.415 634.659C757.415 623.168 757.415 623.168 746.265 623.168H734.32V646.149H746.265C757.415 646.149 757.415 646.149 757.415 634.659Z" fill="white"/>
<path d="M830.145 601.912C827.979 603.96 827.979 608.441 827.979 618.243H855.057C855.057 608.441 855.057 603.96 852.891 601.912C851.067 600.187 847.707 600.187 841.518 600.187C835.329 600.187 831.969 600.187 830.145 601.912Z" fill="white"/>
<path d="M1002.93 601.912C1000.76 603.96 1000.76 608.441 1000.76 618.243H1027.84C1027.84 608.441 1027.84 603.96 1025.67 601.912C1023.85 600.187 1020.49 600.187 1014.3 600.187C1008.11 600.187 1004.75 600.187 1002.93 601.912Z" fill="white"/>
<path d="M1243.35 644.267C1246.07 641.814 1246.07 636.168 1246.07 623.168C1246.07 610.2 1246.07 604.55 1243.35 602.088C1241.25 600.187 1237.53 600.187 1230.93 600.187C1224.34 600.187 1220.62 600.187 1218.52 602.088C1215.8 604.55 1215.8 610.2 1215.8 623.168C1215.8 636.102 1215.8 641.757 1218.53 644.229C1220.64 646.149 1224.39 646.149 1231.07 646.149C1237.58 646.149 1241.27 646.149 1243.35 644.267Z" fill="white"/>
<path d="M1395.65 644.267C1398.37 641.814 1398.37 636.168 1398.37 623.168C1398.37 610.2 1398.37 604.55 1395.65 602.088C1393.55 600.187 1389.83 600.187 1383.24 600.187C1376.65 600.187 1372.93 600.187 1370.83 602.088C1368.11 604.55 1368.11 610.2 1368.11 623.168C1368.11 636.102 1368.11 641.757 1370.83 644.229C1372.94 646.149 1376.7 646.149 1383.37 646.149C1389.89 646.149 1393.57 646.149 1395.65 644.267Z" fill="white"/>
<path fill-rule="evenodd" clip-rule="evenodd" d="M1792 0H0V716H1792V0ZM385.173 158.375L225.223 374.505V122.254H151V100.326C151 87.7906 151 72.1641 163.353 59.5356C175.732 47 191.209 47 203.602 47H385.253L385.173 158.375ZM740.97 208.624C694.604 161.612 624.976 161.612 578.61 161.612H568.11L597.503 122.254H780.57V100.326C780.57 87.7773 780.57 72.0713 768.204 59.5356C755.838 47 740.348 47 727.982 47H559.24C559.24 47 487.427 144.261 466.494 172.33C441.762 205.387 442.769 236.932 492.18 236.932H595.795C613.854 236.932 624.512 241.203 630.351 250.9C638.872 265.116 638.847 279.403 638.826 291.568C638.826 291.859 638.826 292.149 638.825 292.438C638.825 292.739 638.824 293.038 638.824 293.335V366.851C638.824 379.387 638.824 398.237 626.458 410.786C614.079 423.321 595.57 423.321 583.191 423.321H451.56L396.323 498.495L578.61 498.575C624.976 498.575 694.604 498.575 740.97 451.483C757.281 435.101 769.714 415.256 777.38 393.435C787.27 365.18 787.27 296.333 778.174 269.033C770.574 246.297 757.838 225.63 740.97 208.624ZM1164.23 423.242H986.383L1116 247.743C1128.45 230.949 1139.17 216.344 1139.17 197.574C1139.17 178.824 1129.17 165.263 1116.05 147.464L1116 147.405L1097.47 122.333L1097.18 121.95C1078.69 96.9933 1060.24 72.1002 1035.64 59.6152C1010.86 47 981.538 47 941.315 47H863.054C850.688 47 835.197 47 822.831 59.5356C810.465 72.0845 810.465 87.7906 810.465 100.326V122.254H945.909C961.4 122.254 981.471 122.254 989.164 139.525C996.869 156.796 986.052 172.423 976.798 184.958L745.272 498.495H1108.44L1164.23 423.242ZM224.908 497.872V498.508H384.554L384.779 281.914L224.908 497.872ZM1366.08 423.242H1373.08L1318.63 496.837C1280.73 493.362 1239.42 482.949 1208.38 451.483C1162.01 404.471 1162.01 335.452 1162.01 310.368V235.128C1162.01 210.043 1162.01 141.024 1208.38 94.012C1254.74 47 1324.39 47 1370.75 47H1425.05L1425.63 47.001C1472 47.0798 1541.25 47.1974 1587.26 94.012C1592.97 99.7956 1598.15 106.083 1602.75 112.782L1485.26 271.567V178.724C1485.26 166.175 1485.26 147.405 1472.9 134.869C1460.61 122.333 1442.01 122.333 1429.64 122.333H1366.08C1353.71 122.333 1335.19 122.333 1322.82 134.869C1310.46 147.418 1310.46 166.188 1310.46 178.724V366.772C1310.46 379.307 1310.46 398.157 1322.82 410.706C1335.12 423.242 1353.71 423.242 1366.08 423.242ZM1408.86 498.492H1425.27C1471.64 498.492 1541.27 498.492 1587.63 451.401C1634 404.389 1634 335.463 1634 310.285V235.045C1634 226.515 1634 212.799 1632.13 196.708L1408.86 498.492ZM428.698 560.107H442.236V591.706C447.678 589.107 453.386 587.328 460.553 587.328C482.056 587.328 482.056 610.036 482.056 619.885V626.451C482.056 636.3 482.056 659.007 460.553 659.007C453.386 659.007 447.678 657.229 442.236 654.63V685.545H428.698V654.63C423.256 657.229 417.548 659.007 410.381 659.007C388.878 659.007 388.878 636.3 388.878 626.451V619.885C388.878 610.036 388.878 587.328 410.381 587.328C417.548 587.328 423.256 589.107 428.698 591.706V560.107ZM281.362 657.639V678.705H294.104V644.507H282.955V560.791H268.62V644.507H231.986V560.791H217.651V657.639H281.362ZM321.738 588.696V645.328H325.056C325.056 643.675 325.056 642.299 325.168 640.932C325.719 634.161 329 627.626 348.546 588.705L348.55 588.696H370.849V657.639H357.31V601.008H353.992C353.992 601.578 353.992 602.091 353.967 602.604C353.745 607.254 351.503 611.802 328.906 657.639H308.2V588.696H321.738ZM513.706 656.545C516.891 657.366 524.325 659.281 531.226 659.281C557.507 659.281 557.507 636.3 557.507 624.81V619.885C557.507 610.036 557.507 587.055 535.208 587.055C524.192 587.055 517.422 592.253 512.113 596.357L506.538 588.696H500.167V685.545H513.706V656.545ZM572.421 626.451C572.421 637.941 572.421 659.281 601.091 659.281H602.683C631.353 659.281 631.353 637.941 631.353 626.451V619.885C631.353 608.394 631.353 587.055 602.683 587.055H601.091C572.421 587.055 572.421 608.394 572.421 619.885V626.451ZM649.36 657.639H671.659C685.994 657.639 702.718 657.639 702.718 640.403C702.718 634.659 702.718 627.272 689.976 623.989V622.347C701.391 619.064 701.391 611.677 701.391 605.932C701.391 588.696 684.667 588.696 670.332 588.696H649.36V657.639ZM782.103 657.639H795.641V588.696H782.103V657.639ZM771.75 634.659C771.75 657.639 756.618 657.639 743.876 657.639H720.781V588.696H734.32V613.319C737.505 612.498 743.876 610.857 749.451 610.857C771.75 610.857 771.75 627.272 771.75 634.659ZM830.062 644.31C831.94 646.149 835.515 646.149 842.314 646.149H849.482L862.224 642.866H865.41V655.998C852.667 659.281 846.296 659.281 842.314 659.281C813.645 659.281 813.645 640.404 813.645 626.451V619.885C813.645 607.574 813.645 587.055 840.721 587.055H842.314C869.391 587.055 869.391 607.574 869.391 619.885V626.451L866.206 627.272C859.038 628.913 855.853 628.913 841.518 628.913H827.979C827.979 637.973 827.979 642.271 830.062 644.31ZM919.966 600.597V588.696H975.713V600.597H954.609V657.639H941.07V600.597H919.966ZM1002.85 644.31C1004.72 646.149 1008.3 646.149 1015.1 646.149H1022.27L1035.01 642.866H1038.19V655.998C1025.45 659.281 1019.08 659.281 1015.1 659.281C986.428 659.281 986.428 640.404 986.428 626.451V619.885C986.428 607.574 986.428 587.055 1013.51 587.055H1015.1C1042.18 587.055 1042.18 607.574 1042.18 619.885V626.451L1038.99 627.272C1031.82 628.913 1028.64 628.913 1014.3 628.913H1000.76C1000.76 637.973 1000.76 642.271 1002.85 644.31ZM1068.22 657.639H1053.89V653.946L1071.8 623.168L1053.89 592.527V588.696H1068.22L1068.22 588.699C1076.18 602.376 1079.77 608.532 1079.77 616.602H1086.94C1086.94 608.531 1090.52 602.376 1098.48 588.696H1112.82V592.527L1094.9 623.168L1112.82 653.809V657.639H1098.48C1090.52 643.96 1086.94 637.804 1086.94 629.734H1079.77C1079.77 637.804 1076.18 643.959 1068.22 657.637L1068.22 657.639ZM1169.87 616.602V588.696H1183.41V657.639H1169.87V628.503H1141.2V657.639H1127.66V588.696H1141.2V616.602H1169.87ZM1230.14 659.281C1201.47 659.281 1201.47 637.941 1201.47 626.451V619.885C1201.47 608.394 1201.47 587.055 1230.14 587.055H1231.73C1260.4 587.055 1260.4 608.394 1260.4 619.885V626.451C1260.4 637.941 1260.4 659.281 1231.73 659.281H1230.14ZM1322.21 601.008H1300.71C1300.44 609.352 1299.51 619.885 1297.52 634.932C1294.87 655.314 1292.61 657.913 1271.11 657.913V646.696C1282.52 646.696 1283.85 644.371 1285.44 632.47C1287.83 614.687 1288.63 602.923 1289.03 588.696H1335.75V657.639H1322.21V601.008ZM1382.44 659.281C1353.77 659.281 1353.77 637.941 1353.77 626.451V619.885C1353.77 608.394 1353.77 587.055 1382.44 587.055H1384.03C1412.7 587.055 1412.7 608.394 1412.7 619.885V626.451C1412.7 637.941 1412.7 659.281 1384.03 659.281H1382.44ZM1430.71 588.696H1474.25V600.597H1444.25V657.639H1430.71V588.696ZM1501.02 588.696V645.328H1504.34C1504.34 644.717 1504.34 644.145 1504.35 643.596C1504.35 643.391 1504.35 643.19 1504.36 642.991C1504.37 642.281 1504.4 641.606 1504.45 640.932C1505 634.161 1508.29 627.626 1527.83 588.705L1527.84 588.696H1550.13V657.639H1536.6V601.008H1533.28C1533.28 601.578 1533.28 602.091 1533.25 602.604C1533.03 607.254 1530.79 611.802 1508.19 657.639H1487.49V588.696H1501.02ZM1584.89 588.696V645.328H1588.21C1588.21 643.675 1588.21 642.299 1588.32 640.932C1588.87 634.161 1592.15 627.626 1611.7 588.705L1611.7 588.696H1634V657.639H1620.46V601.008H1617.14C1617.14 601.282 1617.14 601.543 1617.14 601.797C1617.14 601.894 1617.14 601.989 1617.13 602.084L1617.13 602.181C1617.13 602.24 1617.13 602.298 1617.13 602.357C1617.12 602.439 1617.12 602.521 1617.12 602.604C1616.9 607.254 1614.65 611.802 1592.06 657.639H1571.35V588.696H1584.89Z" fill="white"/>
<path opacity="0.6" fill-rule="evenodd" clip-rule="evenodd" d="M225.223 374.505L385.173 158.375L385.253 47H203.602C191.209 47 175.732 47 163.353 59.5356C151 72.1641 151 87.7906 151 100.326V122.254H225.223V374.505ZM578.61 161.612C624.976 161.612 694.604 161.612 740.97 208.624C757.838 225.63 770.574 246.297 778.174 269.033C787.27 296.333 787.27 365.18 777.38 393.435C769.714 415.256 757.281 435.101 740.97 451.483C694.604 498.575 624.976 498.575 578.61 498.575L396.323 498.495L451.56 423.321H583.191C595.57 423.321 614.079 423.321 626.458 410.786C638.824 398.237 638.824 379.387 638.824 366.851V293.335C638.824 292.751 638.825 292.162 638.826 291.568C638.847 279.403 638.872 265.116 630.351 250.9C624.512 241.203 613.854 236.932 595.795 236.932H492.18C442.769 236.932 441.762 205.387 466.494 172.33C487.427 144.261 559.24 47 559.24 47H727.982C740.348 47 755.838 47 768.204 59.5356C780.57 72.0713 780.57 87.7773 780.57 100.326V122.254H597.503L568.11 161.612H578.61ZM986.383 423.242H1164.23L1108.44 498.495H745.272L976.798 184.958C986.052 172.423 996.869 156.796 989.164 139.525C981.471 122.254 961.4 122.254 945.909 122.254H810.465V100.326C810.465 87.7906 810.465 72.0846 822.831 59.5356C835.197 47 850.688 47 863.054 47H941.315C981.538 47 1010.86 47 1035.64 59.6152C1060.24 72.1002 1078.69 96.9933 1097.18 121.95L1097.47 122.333L1116 147.405L1116.05 147.464C1129.17 165.263 1139.17 178.824 1139.17 197.574C1139.17 216.344 1128.45 230.949 1116 247.743L986.383 423.242ZM224.908 498.508V497.872L384.779 281.914L384.554 498.508H224.908ZM1373.08 423.242H1366.08C1353.71 423.242 1335.12 423.242 1322.82 410.706C1310.46 398.157 1310.46 379.307 1310.46 366.772V178.724C1310.46 166.188 1310.46 147.418 1322.82 134.869C1335.19 122.333 1353.71 122.333 1366.08 122.333H1429.64C1442.01 122.333 1460.61 122.333 1472.9 134.869C1485.26 147.405 1485.26 166.175 1485.26 178.724V271.567L1602.75 112.782C1598.15 106.083 1592.97 99.7956 1587.26 94.012C1541.25 47.1974 1472 47.0798 1425.63 47.001L1425.05 47H1370.75C1324.39 47 1254.74 47 1208.38 94.012C1162.01 141.024 1162.01 210.043 1162.01 235.128V310.368C1162.01 335.452 1162.01 404.471 1208.38 451.483C1239.42 482.949 1280.73 493.362 1318.63 496.837L1373.08 423.242ZM1425.27 498.492H1408.86L1632.13 196.708C1634 212.799 1634 226.515 1634 235.045V310.285C1634 335.463 1634 404.389 1587.63 451.401C1541.27 498.492 1471.64 498.492 1425.27 498.492ZM442.236 560.107H428.698V591.706C423.256 589.107 417.548 587.328 410.381 587.328C388.878 587.328 388.878 610.036 388.878 619.885V626.451C388.878 636.3 388.878 659.007 410.381 659.007C417.548 659.007 423.256 657.229 428.698 654.63V685.545H442.236V654.63C447.678 657.229 453.386 659.007 460.553 659.007C482.056 659.007 482.056 636.3 482.056 626.451V619.885C482.056 610.036 482.056 587.328 460.553 587.328C453.386 587.328 447.678 589.107 442.236 591.706V560.107ZM428.698 644.097L415.026 646.149C403.213 646.149 403.213 645.602 403.213 623.168C403.213 600.734 403.213 600.187 415.026 600.187L428.698 602.239V644.097ZM442.236 602.239L455.908 600.187C467.721 600.187 467.721 600.734 467.721 623.168C467.721 645.602 467.721 646.149 455.908 646.149L442.236 644.097V602.239ZM281.362 678.705V657.639H217.651V560.791H231.986V644.507H268.62V560.791H282.955V644.507H294.104V678.705H281.362ZM321.738 645.328V588.696H308.2V657.639H328.906C351.503 611.802 353.745 607.254 353.967 602.604C353.992 602.091 353.992 601.578 353.992 601.008H357.31V657.639H370.849V588.696H348.55L348.546 588.705C329 627.626 325.719 634.161 325.168 640.932C325.056 642.299 325.056 643.675 325.056 645.328H321.738ZM531.226 659.281C524.325 659.281 516.891 657.366 513.706 656.545V685.545H500.167V588.696H506.538L512.113 596.357C517.422 592.253 524.192 587.055 535.208 587.055C557.507 587.055 557.507 610.036 557.507 619.885V624.81C557.507 636.3 557.507 659.281 531.226 659.281ZM529.634 600.734L513.706 604.838V644.507C520.077 646.149 524.855 646.149 527.244 646.149C534.319 646.149 538.251 646.149 540.437 644.135C543.172 641.615 543.172 635.942 543.172 623.168C543.172 610.19 543.172 604.72 540.551 602.414C538.642 600.734 535.34 600.734 529.634 600.734ZM601.091 659.281C572.421 659.281 572.421 637.941 572.421 626.451V619.885C572.421 608.394 572.421 587.055 601.091 587.055H602.683C631.353 587.055 631.353 608.394 631.353 619.885V626.451C631.353 637.941 631.353 659.281 602.683 659.281H601.091ZM614.303 644.267C617.019 641.814 617.019 636.168 617.019 623.168C617.019 610.2 617.019 604.55 614.3 602.088C612.201 600.187 608.48 600.187 601.887 600.187C595.294 600.187 591.574 600.187 589.474 602.088C586.756 604.55 586.756 610.2 586.756 623.168C586.756 636.102 586.756 641.757 589.477 644.229C591.591 646.149 595.347 646.149 602.02 646.149C608.534 646.149 612.219 646.149 614.303 644.267ZM671.659 657.639H649.36V588.696H670.332C684.667 588.696 701.391 588.696 701.391 605.932C701.391 611.677 701.391 619.064 689.976 622.347V623.989C702.718 627.272 702.718 634.659 702.718 640.403C702.718 657.639 685.994 657.639 671.659 657.639ZM686.497 629.42C685.279 628.092 682.698 628.092 677.234 628.092H662.899V646.149H677.234C682.698 646.149 685.279 646.149 686.497 644.821C687.587 643.634 687.587 641.384 687.587 637.121C687.587 632.858 687.587 630.608 686.497 629.42ZM685.17 601.514C683.951 600.187 681.371 600.187 675.907 600.187H662.899V618.243H675.907C681.371 618.243 683.951 618.243 685.17 616.916C686.26 615.728 686.26 613.478 686.26 609.215C686.26 604.952 686.26 602.702 685.17 601.514ZM795.641 657.639H782.103V588.696H795.641V657.639ZM743.876 657.639C756.618 657.639 771.75 657.639 771.75 634.659C771.75 627.272 771.75 610.857 749.451 610.857C743.876 610.857 737.505 612.498 734.32 613.319V588.696H720.781V657.639H743.876ZM746.265 623.168C757.415 623.168 757.415 623.168 757.415 634.659C757.415 646.149 757.415 646.149 746.265 646.149H734.32V623.168H746.265ZM842.314 646.149C835.515 646.149 831.94 646.149 830.062 644.31C827.979 642.271 827.979 637.973 827.979 628.913H841.518C855.853 628.913 859.038 628.913 866.206 627.272L869.391 626.451V619.885C869.391 607.574 869.391 587.055 842.314 587.055H840.721C813.645 587.055 813.645 607.573 813.645 619.884V619.885V626.451V626.451C813.645 640.404 813.645 659.281 842.314 659.281C846.296 659.281 852.667 659.281 865.41 655.998V642.866H862.224L849.482 646.149H842.314ZM827.979 618.243C827.979 608.441 827.979 603.96 830.145 601.912C831.969 600.187 835.329 600.187 841.518 600.187C847.707 600.187 851.067 600.187 852.891 601.912C855.057 603.96 855.057 608.441 855.057 618.243H827.979ZM919.966 588.696V600.597H941.07V657.639H954.609V600.597H975.713V588.696H919.966ZM1015.1 646.149C1008.3 646.149 1004.72 646.149 1002.85 644.31C1000.76 642.271 1000.76 637.973 1000.76 628.913H1014.3C1028.64 628.913 1031.82 628.913 1038.99 627.272L1042.18 626.451V619.885C1042.18 607.574 1042.18 587.055 1015.1 587.055H1013.51C986.428 587.055 986.428 607.573 986.428 619.884V619.885V626.451V626.451C986.428 640.404 986.428 659.281 1015.1 659.281C1019.08 659.281 1025.45 659.281 1038.19 655.998V642.866H1035.01L1022.27 646.149H1015.1ZM1000.76 618.243C1000.76 608.441 1000.76 603.96 1002.93 601.912C1004.75 600.187 1008.11 600.187 1014.3 600.187C1020.49 600.187 1023.85 600.187 1025.67 601.912C1027.84 603.96 1027.84 608.441 1027.84 618.243H1000.76ZM1068.22 657.639L1068.22 657.638C1076.18 643.96 1079.77 637.804 1079.77 629.734H1086.94C1086.94 637.804 1090.52 643.96 1098.48 657.639H1112.82V653.809L1094.9 623.168L1112.82 592.527V588.696H1098.48C1090.52 602.376 1086.94 608.531 1086.94 616.602H1079.77C1079.77 608.532 1076.18 602.376 1068.22 588.697L1068.22 588.696H1053.89V592.527L1071.8 623.168L1053.89 653.946V657.639H1068.22ZM1169.87 588.696V616.602H1141.2V588.696H1127.66V657.639H1141.2V628.503H1169.87V657.639H1183.41V588.696H1169.87ZM1201.47 626.451C1201.47 637.941 1201.47 659.281 1230.14 659.281H1231.73C1260.4 659.281 1260.4 637.941 1260.4 626.451V619.885C1260.4 608.394 1260.4 587.055 1231.73 587.055H1230.14C1201.47 587.055 1201.47 608.394 1201.47 619.885V626.451ZM1246.07 623.168C1246.07 636.168 1246.07 641.814 1243.35 644.267C1241.27 646.149 1237.58 646.149 1231.07 646.149C1224.39 646.149 1220.64 646.149 1218.53 644.229C1215.8 641.757 1215.8 636.102 1215.8 623.168C1215.8 610.2 1215.8 604.55 1218.52 602.088C1220.62 600.187 1224.34 600.187 1230.93 600.187C1237.53 600.187 1241.25 600.187 1243.35 602.088C1246.07 604.55 1246.07 610.2 1246.07 623.168ZM1300.71 601.008H1322.21V657.639H1335.75V588.696H1289.03C1288.63 602.923 1287.83 614.687 1285.44 632.47C1283.85 644.371 1282.52 646.696 1271.11 646.696V657.913C1292.61 657.913 1294.87 655.314 1297.52 634.932C1299.51 619.885 1300.44 609.352 1300.71 601.008ZM1353.77 626.451C1353.77 637.941 1353.77 659.281 1382.44 659.281H1384.03C1412.7 659.281 1412.7 637.941 1412.7 626.451V619.885C1412.7 608.394 1412.7 587.055 1384.03 587.055H1382.44C1353.77 587.055 1353.77 608.394 1353.77 619.885V626.451ZM1398.37 623.168C1398.37 636.168 1398.37 641.814 1395.65 644.267C1393.57 646.149 1389.89 646.149 1383.37 646.149C1376.7 646.149 1372.94 646.149 1370.83 644.229C1368.11 641.757 1368.11 636.102 1368.11 623.168C1368.11 610.2 1368.11 604.55 1370.83 602.088C1372.93 600.187 1376.65 600.187 1383.24 600.187C1389.83 600.187 1393.55 600.187 1395.65 602.088C1398.37 604.55 1398.37 610.2 1398.37 623.168ZM1474.25 588.696H1430.71V657.639H1444.25V600.597H1474.25V588.696ZM1501.02 645.328V588.696H1487.49V657.639H1508.19C1530.79 611.802 1533.03 607.254 1533.25 602.604C1533.28 602.091 1533.28 601.578 1533.28 601.008H1536.6V657.639H1550.13V588.696H1527.84L1527.83 588.705C1508.29 627.626 1505 634.161 1504.45 640.932C1504.4 641.606 1504.37 642.281 1504.36 642.991C1504.35 643.19 1504.35 643.391 1504.35 643.596C1504.34 644.145 1504.34 644.717 1504.34 645.328H1501.02ZM1584.89 645.328V588.696H1571.35V657.639H1592.06C1614.65 611.802 1616.9 607.254 1617.12 602.604C1617.12 602.521 1617.12 602.439 1617.13 602.357C1617.13 602.266 1617.13 602.175 1617.13 602.084C1617.14 601.989 1617.14 601.894 1617.14 601.797C1617.14 601.543 1617.14 601.282 1617.14 601.008H1620.46V657.639H1634V588.696H1611.7L1611.7 588.705C1592.15 627.626 1588.87 634.161 1588.32 640.932C1588.21 642.299 1588.21 643.675 1588.21 645.328H1584.89Z" fill="#D30422"/>
</g>
<defs>
<clipPath id="clip0_62_6340">
<rect width="1792" height="716" fill="white"/>
</clipPath>
</defs>
</svg>
